# xmcd
#
# Track frame offsets: 
#        150
#        19325
#        34908
#        55810
#        80390
#        102033
#        119573
#        144388
#        156540
#        174100
#        202063
#        225085
#        242695
#        260718
#        278720
#        301363
#
# Disc length: 4275 seconds
#
# Revision: 5
# Processed by: cddbd v1.5.2PL0 Copyright (c) Steve Scherf et al.
# Submitted via: ExactAudioCopyFreeDBPlugin 1.0
#
DISCID=d610b110
DTITLE=Joe Cocker - Best Ballads
DYEAR=1900
DGENRE=Blues
TTITLE0=You Can Leave Your Hat On
TTITLE1=Night Calls
TTITLE2=Now That The Magic Has Gone
TTITLE3=A Whiter Shade Of Pale
TTITLE4=The Simple Things
TTITLE5=Up Where We Belong
TTITLE6=Don't Let The Sun Go Down On Me
TTITLE7=You Are So Beatiful
TTITLE8=Don't You Love Me Anymore
TTITLE9=St. James Infirmary Blues
TTITLE10=Let It Be
TTITLE11=Summer In The City
TTITLE12=When The Night Comes
TTITLE13=Sorry Seems To Be The Hardest Word
TTITLE14=You Got To Hide Your Love Away
TTITLE15=Now That You're Hang
EXTD=ID3G: 0
EXTT0=
EXTT1=
EXTT2=
EXTT3=
EXTT4=
EXTT5=
EXTT6=
EXTT7=
EXTT8=
EXTT9=
EXTT10=
EXTT11=
EXTT12=
EXTT13=
EXTT14=
EXTT15=
PLAYORDER=
